<?xml version="1.0" standalone="no"?>
<!DOCTYPE svg PUBLIC "-//W3C//DTD SVG 20010904//EN"
 "http://www.w3.org/TR/2001/REC-SVG-20010904/DTD/svg10.dtd">
<svg version="1.0" xmlns="http://www.w3.org/2000/svg"
 width="171.000000pt" height="135.000000pt" viewBox="0 0 171.000000 135.000000"
 preserveAspectRatio="xMidYMid meet">
<metadata>
Created by potrace 1.15, written by Peter Selinger 2001-2017
</metadata>
<g transform="translate(0.000000,135.000000) scale(0.100000,-0.100000)"
fill="#000000" stroke="none">
<path d="M232 1208 c-17 -17 -15 -40 13 -120 30 -85 29 -78 9 -78 -9 0 -39 20
-67 45 -60 55 -90 57 -95 8 -3 -28 4 -39 44 -75 25 -24 75 -71 111 -105 56
-56 68 -63 103 -63 29 0 48 7 70 28 27 23 32 37 40 102 5 41 13 91 19 110 23
75 9 150 -30 150 -22 0 -32 -20 -51 -104 -7 -33 -18 -61 -25 -63 -7 -3 -20 24
-33 69 -12 40 -29 81 -38 91 -17 20 -53 22 -70 5z"/>
<path d="M1397 1203 c-8 -10 -25 -50 -37 -90 -26 -86 -44 -88 -60 -5 -15 79
-26 102 -49 102 -39 0 -53 -75 -30 -150 6 -19 14 -69 19 -110 8 -65 13 -79 40
-102 22 -21 41 -28 70 -28 35 0 47 7 103 63 36 34 86 81 111 105 40 36 47 47
44 75 -5 49 -35 47 -95 -8 -28 -25 -58 -45 -67 -45 -20 0 -21 -7 9 78 14 39
25 80 25 90 0 41 -54 57 -83 25z"/>
<path d="M749 1152 c-60 -38 -178 -167 -209 -228 -34 -68 -40 -204 -12 -284
34 -98 183 -407 213 -444 58 -69 160 -69 218 0 30 37 179 346 213 444 15 42
19 76 16 145 -4 113 -25 159 -123 263 -95 103 -143 132 -215 132 -44 0 -65 -6
-101 -28z"/>
<path d="M258 691 c-30 -27 -33 -34 -31 -82 1 -64 50 -167 152 -320 99 -151
163 -199 201 -154 46 55 -82 443 -179 545 -49 51 -94 55 -143 11z"/>
<path d="M1301 681 c-97 -97 -227 -490 -181 -546 38 -45 102 3 201 154 102
153 151 256 152 320 2 48 -1 55 -31 82 -48 43 -91 40 -141 -10z"/>
</g>
</svg>
